<svg xmlns="http://www.w3.org/2000/svg" version="1.1" xmlns:xlink="http://www.w3.org/1999/xlink" width="16" height="16"><svg width="16" height="16" viewBox="0 0 16 16" fill="none" xmlns="http://www.w3.org/2000/svg">
<rect width="16" height="16" fill="#181421"></rect>
<path d="M2.3289 11.3V4.75453H3.71278V7.45517H6.52208V4.75453H7.90277V11.3H6.52208V8.59615H3.71278V11.3H2.3289ZM12.2139 6.8703C12.1692 6.71476 12.1063 6.57733 12.0254 6.45801C11.9444 6.33656 11.8453 6.23429 11.7281 6.1512C11.6131 6.06597 11.481 6.00098 11.3318 5.95624C11.1848 5.91149 11.0218 5.88912 10.8429 5.88912C10.5083 5.88912 10.2143 5.97222 9.96075 6.13841C9.70933 6.3046 9.51331 6.54644 9.37268 6.86391C9.23206 7.17925 9.16174 7.5649 9.16174 8.02087C9.16174 8.47683 9.23099 8.86462 9.36948 9.18422C9.50798 9.50382 9.704 9.74779 9.95755 9.91611C10.2111 10.0823 10.5105 10.1654 10.8556 10.1654C11.1688 10.1654 11.4362 10.11 11.6578 9.99921C11.8816 9.88628 12.052 9.72754 12.1692 9.523C12.2885 9.31845 12.3482 9.07662 12.3482 8.7975L12.6294 8.83905H10.9419V7.79715H13.6809V8.62172C13.6809 9.197 13.5595 9.69132 13.3166 10.1047C13.0737 10.5159 12.7392 10.8334 12.313 11.0571C11.8869 11.2787 11.399 11.3895 10.8492 11.3895C10.2356 11.3895 9.69654 11.2542 9.23206 10.9836C8.76757 10.7109 8.40535 10.3241 8.14541 9.82343C7.88759 9.32058 7.75869 8.72399 7.75869 8.03365C7.75869 7.50311 7.83539 7.0301 7.9888 6.61462C8.14434 6.197 8.36167 5.84331 8.64079 5.55354C8.91991 5.26377 9.24484 5.04324 9.61558 4.89196C9.98632 4.74068 10.388 4.66504 10.8205 4.66504C11.1912 4.66504 11.5364 4.71938 11.856 4.82804C12.1756 4.93458 12.459 5.08585 12.7061 5.28188C12.9554 5.4779 13.1589 5.71121 13.3166 5.98181C13.4742 6.25027 13.5755 6.54644 13.6202 6.8703H12.2139Z" fill="#DEDEDE"></path>
</svg><style>@media (prefers-color-scheme: light) { :root { filter: contrast(1) brightness(1); } }
@media (prefers-color-scheme: dark) { :root { filter: none; } }
</style></svg>